<svg width="41" height="40" viewBox="0 0 41 40" fill="none" xmlns="http://www.w3.org/2000/svg">
<g clip-path="url(#clip0_23_1064)">
<g clip-path="url(#clip1_23_1064)">
<path d="M30.2663 10.3696C29.9329 9.97097 29.3663 9.87131 28.9329 10.1703L26.9996 11.4992C26.0996 10.5358 24.8329 10.0042 23.4663 10.0042C20.7663 10.0042 18.5329 12.1969 18.5329 14.9211C18.5329 15.3198 18.5663 15.6852 18.6663 16.0507C16.3329 15.5524 14.9329 13.858 14.3996 10.8015C14.3329 10.4029 14.0329 10.1039 13.6329 10.0042C13.2663 9.90453 12.8663 10.0706 12.6329 10.3696C12.5663 10.4361 7.06627 18.0773 15.0329 24.5557C14.2663 26.1836 11.9663 27.5789 11.0663 28.044C10.6329 28.2434 10.4329 28.7085 10.5329 29.1736C10.6329 29.6387 11.0329 29.9377 11.4996 29.9377H13.2329C23.3663 29.9377 27.9663 24.9211 28.0663 13.6919L30.1663 11.6985C30.5663 11.3663 30.5996 10.7683 30.2663 10.3696Z" fill="white"/>
</g>
</g>
<defs>
<clipPath id="clip0_23_1064">
<rect width="20" height="20" fill="white" transform="translate(10.5 10)"/>
</clipPath>
<clipPath id="clip1_23_1064">
<rect width="20" height="19.9667" fill="white" transform="translate(10.5 9.97131)"/>
</clipPath>
</defs>
</svg>
