<svg width="41" height="40" viewBox="0 0 41 40" fill="none" xmlns="http://www.w3.org/2000/svg">
<g clip-path="url(#clip0_23_1050)">
<path d="M24.1443 13.0345C20.6556 13.0345 17.7885 15.8621 17.7885 19.3794V29.3104C17.7885 29.6897 18.0994 30.0001 18.4794 30.0001H22.0718C22.4518 30.0001 22.7626 29.6897 22.7626 29.3104V19.6552C22.7626 18.8966 23.3844 18.2759 24.1443 18.2759C24.9043 18.2759 25.526 18.8966 25.526 19.6552V29.3104C25.526 29.6897 25.8369 30.0001 26.2169 30.0001H29.8093C30.1892 30.0001 30.5001 29.6897 30.5001 29.3104V19.3794C30.5001 15.8966 27.6677 13.0345 24.1443 13.0345Z" fill="white"/>
<path d="M14.7832 16.2759H11.1908C10.8109 16.2759 10.5 16.5862 10.5 16.9655V29.3104C10.5 29.6897 10.8109 30 11.1908 30H14.7832C15.1632 30 15.4741 29.6897 15.4741 29.3104V16.9655C15.4741 16.5862 15.1632 16.2759 14.7832 16.2759Z" fill="white"/>
<path d="M12.987 10C11.6054 10 10.5 11.1034 10.5 12.4828C10.5 13.8621 11.6054 14.9655 12.987 14.9655C14.3687 14.9655 15.4741 13.8621 15.4741 12.4828C15.4741 11.1034 14.3687 10 12.987 10Z" fill="white"/>
</g>
<defs>
<clipPath id="clip0_23_1050">
<rect width="20" height="20" fill="white" transform="translate(10.5 10)"/>
</clipPath>
</defs>
</svg>
