<svg width="41" height="40" viewBox="0 0 41 40" fill="none" xmlns="http://www.w3.org/2000/svg">
<g clip-path="url(#clip0_23_1044)">
<g clip-path="url(#clip1_23_1044)">
<path d="M29.4992 17.4611C29.4992 16.3212 29.1332 15.2504 28.4345 14.3178C28.7006 13.4197 28.7672 12.2798 28.7006 10.9672C28.6674 10.4145 28.2348 10 27.7025 10C27.4031 10 24.8744 10.0345 23.4104 11.3817C22.1461 11.1399 20.8153 11.1399 19.5177 11.3817C18.087 10.0345 15.5583 10 15.2256 10C14.6933 10 14.2607 10.4145 14.2274 10.9672C14.1276 12.2798 14.2274 13.4197 14.4936 14.3178C13.7949 15.285 13.4289 16.3558 13.4289 17.4611C13.4289 19.8791 15.2256 22.0553 17.9539 23.0915C17.8541 23.2988 17.7875 23.5406 17.721 23.7824C14.8263 23.4715 13.4622 20.7427 13.3957 20.639C13.1628 20.1209 12.5639 19.9136 12.0648 20.19C11.5657 20.4318 11.3661 21.0535 11.6323 21.5717C11.6988 21.7444 13.5287 25.4404 17.5546 25.8549V28.9637C17.5546 29.5509 17.9872 30 18.5528 30H24.3753C24.9409 30 25.3735 29.5509 25.3735 28.9637V24.8532C25.3735 24.2314 25.2404 23.6442 25.0075 23.1261C27.7025 22.0553 29.4992 19.9136 29.4992 17.4611Z" fill="white"/>
</g>
</g>
<defs>
<clipPath id="clip0_23_1044">
<rect width="18" height="20" fill="white" transform="translate(11.5 10)"/>
</clipPath>
<clipPath id="clip1_23_1044">
<rect width="18" height="20" fill="white" transform="translate(11.5 10)"/>
</clipPath>
</defs>
</svg>
