<svg width="41" height="40" viewBox="0 0 41 40" fill="none" xmlns="http://www.w3.org/2000/svg">
<g clip-path="url(#clip0_23_1060)">
<path d="M19.9642 30C24.6609 30 27.5834 26.5392 27.5834 22.0742C27.5834 20.3908 27.3092 18.8708 25.3984 18.4142C25.8634 17.1408 27.205 13.4575 27.205 12.2775C27.205 11.2383 26.58 10.3675 25.4659 10.3675C23.69 10.3675 22.0984 15.5117 21.6 16.7383C21.2142 15.625 19.4075 10 17.815 10C16.5775 10 15.9967 10.8942 15.9967 12.0192C15.9967 13.3983 17.3575 16.9725 17.8509 18.3475C17.6009 18.2575 17.33 18.1792 17.0542 18.1792C16.1225 18.1792 15.1317 19.3158 15.1317 20.2342C15.1317 20.5817 15.3267 21.07 15.45 21.3942C13.9817 21.785 13.4167 22.7458 13.4167 24.195C13.4125 27.015 16.1359 30 19.9642 30ZM23.9892 14.2192C24.1492 13.7383 24.8292 11.7075 25.4659 11.7075C25.8084 11.7075 25.9 12.055 25.9 12.3325C25.9 13.0783 24.3642 17.2 24.025 18.1133L22.6717 17.8792L23.9892 14.2192ZM17.2467 11.8875V11.8867C17.2467 11.4217 17.8242 10.1017 19.0892 13.7267L20.4667 17.645C19.8459 17.5942 19.3642 17.5275 19.0584 17.7C18.6242 16.575 17.2467 13.0242 17.2467 11.8875ZM17.155 19.5308L17.1559 19.5317C18.3217 19.5317 19.8267 23.2267 19.8267 23.7267C19.8267 23.9258 19.6317 24.1717 19.405 24.1717C18.5725 24.1717 16.3434 21.1675 16.3434 20.355C16.3467 20.0542 16.8484 19.5308 17.155 19.5308ZM15.815 22.5892C16.2684 22.5892 17.9759 24.945 17.9759 25.445C17.9759 25.6367 17.6692 25.7692 17.5109 25.7692C16.87 25.7692 16.6192 25.1633 15.4775 23.7617C14.295 24.9217 16.2934 27.1558 17.7984 27.1558C18.8367 27.1558 19.5134 26.2108 19.3109 25.515C19.4584 25.515 19.6409 25.5267 19.7767 25.4917C19.8209 26.55 20.1392 27.8117 21.4367 27.9017C21.4367 27.8667 21.5167 27.6242 21.5167 27.6125C21.5167 26.9325 21.095 26.3392 21.095 25.6475C21.095 24.5417 21.9584 23.4717 22.8342 22.8467C23.1525 22.6125 23.5392 22.4675 23.9125 22.335C24.2992 22.1908 24.7092 22.0225 25.0025 21.7333C24.9584 21.2958 24.7759 20.9092 24.33 20.9092C23.2275 20.9092 19.53 21.0658 19.53 19.3583C19.53 19.0967 19.5342 18.8467 20.2234 18.8467C21.5092 18.8467 24.7734 19.1592 25.7284 19.9833C26.4484 20.6125 26.6959 24.405 24.4942 26.8075L24.4917 26.8083C23.3334 28.0583 21.8525 28.7067 20.125 28.7067C17.7609 28.7067 15.8934 27.4333 14.9942 25.2575C14.3134 23.5625 15.1459 22.5892 15.815 22.5892ZM20.5659 21.8858C20.9534 22.0075 21.3509 22.0433 21.7492 22.1208C21.4542 22.3317 21.1925 22.59 20.9409 22.8667C20.8292 22.535 20.6934 22.2108 20.5659 21.8858Z" fill="white"/>
</g>
<defs>
<clipPath id="clip0_23_1060">
<rect width="20" height="20" fill="white" transform="translate(10.5 10)"/>
</clipPath>
</defs>
</svg>
